<?xml version="1.0" encoding="utf-8"?>
<!-- Generator: Adobe Illustrator 15.1.0, SVG Export Plug-In . SVG Version: 6.00 Build 0)  -->
<!DOCTYPE svg PUBLIC "-//W3C//DTD SVG 1.1//EN" "http://www.w3.org/Graphics/SVG/1.1/DTD/svg11.dtd">
<svg version="1.1" id="Capa_1" xmlns="http://www.w3.org/2000/svg" xmlns:xlink="http://www.w3.org/1999/xlink" x="0px" y="0px"
	 width="310px" height="144px" viewBox="0 0 310 144" enable-background="new 0 0 310 144" xml:space="preserve">
<g>
	<g>
		<path fill="#00AEEF" d="M63.457,73.383L52.393,98.943L11.755,16.795h13.069l27.457,54.757l5.432-11.173L33.197,8.122h60.529
			L69.324,60.49l5.275,10.988l25.118-54.684h12.371L74.423,99.087L63.457,73.383z M63.398,46.64l13.086-27.878H50.312L63.398,46.64z
			"/>
		<path fill="#00AEEF" d="M91.373,9.622L67.665,60.5l6.965,14.507l26.05-56.712h9.073L74.471,95.378L63.467,69.584L52.302,95.378
			L14.17,18.295h9.729l28.403,56.646l7.073-14.55L35.558,9.622H91.373 M63.398,50.17l15.447-32.908H47.95L63.398,50.17
			 M96.081,6.622h-4.708H35.558h-4.721l2.005,4.274l23.209,49.473l-3.791,7.796L26.58,16.951l-0.83-1.655h-1.851H14.17H9.339
			l2.142,4.33l38.133,77.083l2.87,5.803l2.571-5.941l8.393-19.387l8.264,19.373l2.663,6.242l2.824-6.17l35.282-77.083l1.945-4.249
			h-4.673h-9.073h-1.924l-0.803,1.748L74.57,67.95l-3.587-7.469l23.109-49.592L96.081,6.622L96.081,6.622z M52.673,20.262h21.449
			L63.398,43.11L52.673,20.262L52.673,20.262z"/>
	</g>
	<g>
		<polygon fill="#00AEEF" points="131.682,8.136 172.509,96.037 159.29,96.037 131.648,32.908 107.936,84.976 143.607,84.92 
			144.207,95.755 90.398,96.05 		"/>
		<path fill="#00AEEF" d="M131.674,11.681l38.483,82.854h-9.888l-28.597-65.306l-26.071,57.25l36.585-0.058l0.435,7.841
			l-49.857,0.273L131.674,11.681 M131.689,4.592l-2.73,5.814l-38.91,82.855l-2.02,4.302l4.752-0.027l49.857-0.272l3.153-0.019
			l-0.175-3.147l-0.435-7.841l-0.157-2.838l-2.843,0.004l-31.914,0.05l21.352-46.886l25.903,59.152l0.787,1.797h1.961h9.888h4.701
			l-1.98-4.264l-38.483-82.854L131.689,4.592L131.689,4.592z"/>
	</g>
	<g>
		<polygon fill="#00AEEF" points="244.483,95.755 245.083,84.92 280.755,84.976 257.043,32.908 229.401,96.037 216.182,96.037 
			257.009,8.136 298.294,96.05 		"/>
		<path fill="#00AEEF" d="M257.017,11.681l38.909,82.854l-49.858-0.272l0.436-7.841l36.586,0.059l-26.07-57.25l-28.598,65.307
			h-9.889L257.017,11.681 M257.002,4.592l-2.706,5.826l-38.484,82.855l-1.979,4.264h4.7h9.889h1.961l0.787-1.797l25.902-59.153
			l21.352,46.886l-31.915-0.05l-2.843-0.004l-0.157,2.838l-0.435,7.841l-0.176,3.148l3.153,0.018l49.858,0.273l4.752,0.025
			l-2.021-4.301l-38.907-82.856L257.002,4.592L257.002,4.592z"/>
	</g>
	<g>
		<polygon fill="#00AEEF" points="150.956,15.653 163.645,15.653 192.808,77.591 222.37,58.036 213.554,77.186 187.378,95.777 		"/>
		<path fill="#00AEEF" d="M162.691,17.153l29.499,62.646l26.614-17.605l-6.446,14.001l-24.367,17.307l-34.707-76.349H162.691
			 M164.595,14.153h-1.903h-9.406h-4.659l1.928,4.242l34.706,76.35l1.506,3.309l2.963-2.105l24.367-17.307l0.652-0.464l0.336-0.728
			l6.445-14.002l4.404-9.568l-8.785,5.812l-23.723,15.692l-28.021-59.508L164.595,14.153L164.595,14.153z"/>
	</g>
	<path fill="#414042" d="M83.507,111.094h6.959c4.399,0,6.559,2.439,6.559,6.918v14.158c0,4.479-2.159,6.919-6.559,6.919h-6.959
		V111.094z M87.906,115.093v19.996h2.479c1.399,0,2.239-0.72,2.239-2.72v-14.557c0-2-0.84-2.721-2.239-2.721L87.906,115.093
		L87.906,115.093z"/>
	<path fill="#414042" d="M116.226,122.892h6.039v3.999h-6.039v8.198h7.599v4h-11.998v-27.995h11.998v3.999h-7.599V122.892z"/>
	<path fill="#414042" d="M144.465,110.773c4.279,0,6.479,2.561,6.479,7.039v0.881h-4.16v-1.16c0-2-0.8-2.76-2.199-2.76
		s-2.199,0.76-2.199,2.76c0,5.759,8.599,6.838,8.599,14.838c0,4.479-2.24,7.037-6.56,7.037s-6.559-2.56-6.559-7.037v-1.721h4.159v2
		c0,2,0.88,2.719,2.279,2.719c1.4,0,2.28-0.719,2.28-2.719c0-5.76-8.599-6.84-8.599-14.838
		C137.986,113.333,140.186,110.773,144.465,110.773z"/>
	<path fill="#414042" d="M165.506,111.094h4.399v27.995h-4.399V111.094z"/>
	<path fill="#414042" d="M191.704,123.49h6.158v8.879c0,4.479-2.238,7.039-6.559,7.039s-6.559-2.561-6.559-7.039v-14.557
		c0-4.479,2.238-7.039,6.559-7.039s6.559,2.56,6.559,7.039v2.719h-4.158v-3c0-2-0.881-2.76-2.279-2.76c-1.4,0-2.279,0.76-2.279,2.76
		v15.117c0,2,0.879,2.721,2.279,2.721c1.398,0,2.279-0.721,2.279-2.721v-5.158h-2V123.49z"/>
	<path fill="#414042" d="M216.625,118.812v20.276h-3.96v-27.995h5.52l4.52,16.757v-16.757h3.92v27.995h-4.52L216.625,118.812z"/>
</g>
</svg>
